simulation
nRows=43
nColumns=15
endheader
time  TH_x TH_y TH_z SC_y  SC_z  SC_x  AC_y  AC_z  AC_x  GH_y  GH_z  GH_yy  EL_x  PS_y
0.000000  0.000000  0.000000  0.000000  -31.466709  1.023896  7.884076  51.470676  7.645409  -8.194353  47.761940  9.635544  -16.198966  22.274170  119.801014
0.000389  0.000000  0.000000  0.000000  -31.466709  1.023896  -2.115924  50.179229  15.405952  -1.752221  47.761940  9.635544  -16.198966  22.274170  119.801014
0.000777  0.000000  0.000000  0.000000  -35.463821  1.896444  -2.115924  57.548697  -3.090040  4.042957  57.613237  17.196592  -22.997334  15.614506  109.812000
0.001166  0.000000  0.000000  0.000000  -27.290830  -9.046793  -2.115924  54.516670  12.747083  -7.459143  56.632116  16.325585  -20.473295  29.364636  112.202372
0.001555  0.000000  0.000000  0.000000  -32.080257  -0.860863  -2.115924  47.766431  29.791299  -6.299952  57.049527  15.893452  -20.328350  30.075269  123.018238
0.001943  0.000000  0.000000  0.000000  -23.690267  -4.924691  -2.115924  57.933251  3.707149  -4.177139  57.052894  16.062253  -14.621848  32.187057  115.007596
0.002332  0.000000  0.000000  0.000000  -47.375701  6.978336  -2.115924  44.067916  24.014876  -1.296297  43.755452  18.620241  -19.882479  13.100570  126.160778
0.002721  0.000000  0.000000  0.000000  -16.511902  1.391380  -2.115924  46.488444  20.052408  -10.125609  38.307626  15.169781  -15.694583  15.185705  118.603384
0.003109  0.000000  0.000000  0.000000  -20.516222  16.082907  -2.115924  47.225313  -8.342613  4.800223  40.091957  6.652328  -6.773785  19.027250  123.774130
0.003498  0.000000  0.000000  0.000000  -21.306069  10.777526  -2.115924  43.683728  19.932080  4.542151  46.905802  3.259496  -10.620338  21.293782  119.944823
0.003887  0.000000  0.000000  0.000000  -35.990466  -9.314297  -2.115924  51.512104  9.960305  -9.018480  45.797719  9.073649  -14.857172  15.123195  129.694444
0.004275  0.000000  0.000000  0.000000  -46.980353  9.366600  -2.115924  51.087973  -1.420857  4.777760  54.148120  17.989182  -13.288438  22.971685  127.782816
0.004664  0.000000  0.000000  0.000000  -26.873337  -10.242622  -2.115924  48.625203  -3.128022  -10.374583  53.718691  5.350353  -19.533337  25.265825  129.438286
0.005052  0.000000  0.000000  0.000000  -24.709984  9.238113  -2.115924  42.867254  31.812416  5.704806  56.722476  -0.250445  -11.827439  18.714915  115.031960
0.005441  0.000000  0.000000  0.000000  -25.456583  1.880289  -2.115924  48.584511  11.796726  -8.866206  52.258162  9.480319  -16.897633  25.410164  124.337928
0.005830  0.000000  0.000000  0.000000  -28.261083  -0.083169  -2.115924  51.130526  20.174396  -6.243468  45.355366  17.777935  -9.694923  12.543762  127.946984
0.006218  0.000000  0.000000  0.000000  -41.954372  -0.743898  -2.115924  48.016050  27.237739  -6.481335  50.117804  9.257598  -21.132637  19.815384  124.018705
0.006607  0.000000  0.000000  0.000000  -31.466709  1.023896  3.884076  51.064897  10.766240  -5.659280  47.761940  9.635544  -16.198966  22.274170  119.801014
0.006996  0.000000  0.000000  0.000000  -23.079438  -3.442896  3.884076  54.568954  6.674549  -6.360507  49.163713  6.851263  -23.954019  16.227168  124.898468
0.007384  0.000000  0.000000  0.000000  -35.554816  -7.767232  3.884076  54.662133  13.045283  -14.315836  52.788057  14.236722  -24.831181  16.064017  114.751285
0.007773  0.000000  0.000000  0.000000  -48.232667  -1.285404  3.884076  46.129785  25.034653  -8.999263  49.030814  19.432138  -6.862419  30.507091  125.694450
0.008162  0.000000  0.000000  0.000000  -13.237585  14.441543  3.884076  48.144475  -1.796348  0.925256  56.944748  6.788073  -21.543887  12.759679  112.614422
0.008550  0.000000  0.000000  0.000000  -47.245927  9.739996  3.884076  48.513546  17.341765  3.362932  43.483816  12.363975  -11.903452  18.060128  110.944660
0.008939  0.000000  0.000000  0.000000  -11.550693  4.601828  3.884076  41.746536  29.988853  -11.329661  48.163556  7.674453  -14.837895  25.071793  126.864856
0.009328  0.000000  0.000000  0.000000  -23.810524  1.902947  3.884076  47.935288  19.775118  -12.866537  56.747034  19.246905  -16.876418  27.371825  116.463773
0.009716  0.000000  0.000000  0.000000  -35.995102  5.147616  3.884076  54.101689  -12.068570  0.721417  47.984333  7.410911  -8.876201  31.779107  110.151264
0.010105  0.000000  0.000000  0.000000  -35.607221  -5.246683  3.884076  53.914601  27.321221  -14.785986  55.121899  2.684120  -10.638854  14.185342  125.622789
0.010494  0.000000  0.000000  0.000000  -17.223494  -0.815644  3.884076  60.448877  21.997922  -3.381306  49.143076  19.102179  -23.203682  14.449112  119.213471
0.010882  0.000000  0.000000  0.000000  -32.376702  7.044835  3.884076  45.333167  9.777782  -12.681716  51.949818  17.445576  -9.773751  26.803318  122.808566
0.011271  0.000000  0.000000  0.000000  -22.577981  -1.147759  3.884076  47.094688  6.321302  -11.889634  39.739811  4.052097  -18.016022  20.435134  122.777497
0.011660  0.000000  0.000000  0.000000  -28.567847  8.226785  3.884076  46.433254  28.918430  0.231858  47.381755  19.412626  -19.711301  32.037911  122.403603
0.012048  0.000000  0.000000  0.000000  -17.679921  -0.966339  3.884076  57.227086  -12.156006  2.072407  46.766628  14.861590  -22.832686  31.412905  129.791972
0.012437  0.000000  0.000000  0.000000  -27.811946  7.188945  3.884076  54.183773  17.711108  3.288280  45.405718  11.157478  -9.518483  13.121138  129.030059
0.012825  0.000000  0.000000  0.000000  -31.466709  1.023896  9.884076  51.620383  6.079130  -9.447070  47.761940  9.635544  -16.198966  22.274170  119.801014
0.013214  0.000000  0.000000  0.000000  -35.654561  11.432312  9.884076  44.992623  -17.227095  -4.756493  45.037343  15.669286  -24.337371  29.575963  127.628162
0.013603  0.000000  0.000000  0.000000  -19.488361  7.955665  9.884076  54.316635  30.853777  -4.362180  47.900839  7.631891  -23.927105  20.653370  113.646636
0.013991  0.000000  0.000000  0.000000  -31.885050  17.241000  9.884076  43.563688  -16.598006  -5.951673  50.682752  0.794720  -16.775187  15.937895  115.907692
0.014380  0.000000  0.000000  0.000000  -32.090678  11.045426  9.884076  54.470653  4.652243  -4.163472  43.927561  9.809801  -22.446122  13.634097  111.831872
0.014769  0.000000  0.000000  0.000000  -42.393863  15.983995  9.884076  50.839705  -17.367072  -0.860066  57.755726  14.137526  -22.620148  23.700337  124.005466
0.015157  0.000000  0.000000  0.000000  -23.597908  14.068676  9.884076  42.723148  9.587523  -4.904402  46.724207  7.368988  -25.336104  20.747074  112.552694
0.015546  0.000000  0.000000  0.000000  -13.459374  9.611601  9.884076  45.404909  9.727247  -16.182290  52.823851  19.382657  -25.147764  26.816532  124.518370
0.015935  0.000000  0.000000  0.000000  -44.142552  -11.367318  9.884076  57.033530  -16.670918  0.025860  49.096027  3.926624  -7.052977  18.222031  124.518827
0.016323  0.000000  0.000000  0.000000  -20.810969  -5.919982  9.884076  57.800382  1.465696  -8.034157  57.647663  18.837008  -10.358456  25.073205  120.111684
